<svg xmlns="http://www.w3.org/2000/svg"
     viewBox="0 0 1000 1000">

  <rect width="1000" height="1000" fill="#000000"/>

  <!-- قاب اصلی سفید -->
  <path fill="#FDFDFD"
        d="
        M500 180
        L700 180
        Q770 180 810 240
        L900 400
        Q940 470 900 540
        L810 700
        Q770 760 700 760
        L300 760
        Q230 760 190 700
        L100 540
        Q60 470 100 400
        L190 240
        Q230 180 300 180
        Z"/>

  <!-- اشکال خاکستری -->
  <circle cx="500" cy="250" r="55" fill="#6B6C70"/>
  <circle cx="700" cy="350" r="65" fill="#6B6C70"/>
  <circle cx="300" cy="450" r="70" fill="#6B6C70"/>
  <circle cx="620" cy="600" r="75" fill="#6B6C70"/>
  <circle cx="400" cy="680" r="60" fill="#6B6C70"/>

  <path fill="#6B6C70"
        d="
        M230 300
        Q280 250 340 280
        Q380 320 340 360
        Q270 390 220 350
        Z"/>

  <path fill="#6B6C70"
        d="
        M650 250
        Q720 210 780 250
        Q820 300 770 340
        Q700 350 640 310
        Z"/>

  <path fill="#6B6C70"
        d="
        M250 550
        Q320 500 390 540
        Q420 620 350 650
        Q280 640 240 600
        Z"/>

  <!-- شبکه سفید داخلی -->
  <g fill="none"
     stroke="#FDFDFD"
     stroke-width="18"
     stroke-linecap="round"
     stroke-linejoin="round">

    <path d="M280 280 L720 280"/>
    <path d="M210 430 L760 430"/>
    <path d="M260 620 L720 620"/>

    <path d="M350 220 L350 720"/>
    <path d="M620 220 L620 720"/>

    <path d="M220 350 L760 650"/>
    <path d="M760 350 L240 650"/>
  </g>

</svg>
